# xmcd
#
# Track frame offsets: 
#        150
#        12381
#        25125
#        35954
#        49179
#        60970
#        74601
#        87229
#        100349
#        111251
#        121832
#        133779
#        147812
#        159748
#        173158
#        185205
#        199304
#        211497
#        223992
#        237781
#        248782
#        261678
#        274856
#        287924
#        309726
#        323048
#        335515
#
# Disc length: 4658 seconds
#
# Revision: 2
# Processed by: cddbd v1.5.2PL0 Copyright (c) Steve Scherf et al.
# Submitted via: ExactAudioCopyFreeDBPlugin 1.0
#
DISCID=b412301b
DTITLE=Various Artist - Jump Blues Jamaica Way:  Jamaican Sound Syste
DTITLE=m Classics, 1945-1960
DYEAR=2014
DGENRE=Rhythm and Blues
TTITLE0=Louis Jordan - Caldonia
TTITLE1=Illinois Jacquet - Twelve Minutes to Go
TTITLE2=Joe Liggins - Ten Toes
TTITLE3=Harold Tinsley - Fan Your Fanny Blues
TTITLE4=Sherman Williams - Hello
TTITLE5=Eddie Vinson - Kidney Stew Blues
TTITLE6=Jimmy Witherspoon - Cain River Blues
TTITLE7=Sonny Thompson - Lone Gone (Part 2)
TTITLE8=Roy Milton - Keep A Dollar in Your Pocket
TTITLE9=Joe Liggins - Roll 'Em
TTITLE10=Sherman Williams - Oo-Wee Baby Gee
TTITLE11=Louis Jordan - Have You Got the Gumption
TTITLE12=Percy Mayfield - Half Awoke
TTITLE13=Sonny Thompson - The Fish (Part 2)
TTITLE14=Larry Darnell - For You, My Love
TTITLE15=The Robins - If It's So Baby
TTITLE16=Clarence "Gatemouth" Brown - Mary is Fine
TTITLE17=King Tut - You've Been Fiddlin' Around
TTITLE18=Bobby Smith - Bess's Boogie
TTITLE19=Smiley Lewis - Growing Old
TTITLE20=Clarence "Gatemouth" Brown - Boogie Rambler
TTITLE21=Ruth Brown - Teardrops from My Eyes
TTITLE22=Louis Jordan - Show Me How (You Milk the Cow)
TTITLE23=Joe Liggins - Rhythm in the Barnyard (Parts 1 and 2)
TTITLE24=Jay McNeely - All That Wine is Gone
TTITLE25=Lynn Hope - Blow, Lynn, Blow
TTITLE26=The Clovers - Don't You Know I Love You
EXTD=
EXTT0=
EXTT1=
EXTT2=
EXTT3=
EXTT4=
EXTT5=
EXTT6=
EXTT7=
EXTT8=
EXTT9=
EXTT10=
EXTT11=
EXTT12=
EXTT13=
EXTT14=
EXTT15=
EXTT16=
EXTT17=
EXTT18=
EXTT19=
EXTT20=
EXTT21=
EXTT22=
EXTT23=
EXTT24=
EXTT25=
EXTT26=
PLAYORDER=
